<svg width="72" height="86" viewBox="0 0 72 86" fill="none" xmlns="http://www.w3.org/2000/svg">
<rect x="29.0632" y="46.5215" width="15.0003" height="25.1475" fill="#047FFF"/>
<path d="M51.9157 70.3455L41.7685 60.1982L36.0331 61.5218V85.7869H51.9157V70.3455Z" fill="#047FFF"/>
<path d="M22.4615 70.3455L32.6087 60.1982L38.3441 61.5218V85.7869H22.4615V70.3455Z" fill="#047FFF"/>
<path d="M62.0002 45.2812C62.0002 54.0699 55.2396 56.0793 51.8594 55.9854H34.6763L38.3382 10.915L62.0002 12.0418V45.2812Z" fill="#FF613F"/>
<path d="M12.1412 45.2813C12.1412 54.07 18.9017 56.0794 22.282 55.9855H39.465L39.1834 11.4785L12.1412 12.6053V45.2813Z" fill="#FF613F"/>
<ellipse cx="51.1531" cy="37.9879" rx="3.91063" ry="4.04547" fill="#282828"/>
<ellipse cx="23.8293" cy="37.9879" rx="3.91063" ry="4.04547" fill="#282828"/>
<path d="M24.6828 0.404407L50.9282 0.577302L71.3355 22.9376L0.504409 22.471L24.6828 0.404407Z" fill="white"/>
</svg>
